<svg width="45" height="36" viewBox="0 0 45 36" fill="none" xmlns="http://www.w3.org/2000/svg">
<path d="M17.8499 26.2058C17.8499 24.9705 17.4153 24.008 16.5461 23.3181C15.6927 22.6283 14.1835 21.9144 12.0185 21.1764C9.8534 20.4385 8.08342 19.7246 6.70853 19.0347C2.23617 16.8048 -1.00717e-06 13.7406 0 9.84222C5.01512e-07 7.90105 0.553119 6.1925 1.65935 4.71656C2.78139 3.22459 4.36173 2.06951 6.40037 1.25133C8.439 0.41711 10.7305 -6.77408e-07 13.2748 0C15.756 6.60579e-07 17.9763 0.449198 19.9359 1.34759C20.8987 1.78543 21.7563 2.31472 22.5089 2.93547C23.0138 2.57811 23.5573 2.2574 24.1396 1.97333C26.1782 0.978679 28.5882 0.481355 31.3696 0.481355C35.5733 0.481357 38.8841 1.58831 41.302 3.80221C43.7199 6.01611 44.9526 9.04819 45 12.8984L45 36L36.6321 36L36.6321 12.73C36.5373 8.89578 34.7831 6.97867 31.3696 6.97867C29.647 6.97867 28.3433 7.45995 27.4583 8.42251C26.5733 9.38508 26.1308 10.9492 26.1308 13.115L26.1308 18.8989C24.754 17.2137 22.8676 15.8041 20.5793 14.6628C19.763 14.2533 18.8383 13.8448 17.8103 13.4364V13.0669C17.8103 12.3075 17.8569 11.5775 17.95 10.877H17.8736C17.8736 9.44918 17.439 8.34223 16.5698 7.55613C15.7164 6.77004 14.5549 6.37699 13.0852 6.37699C11.5997 6.37699 10.4223 6.71389 9.55314 7.38768C8.69975 8.04544 8.27306 8.88768 8.27306 9.91442C8.27306 10.8128 8.74716 11.631 9.69536 12.369C10.6436 13.0909 12.3108 13.8449 14.6971 14.631C17.0834 15.401 19.0431 16.2353 20.576 17.1337C24.3056 19.3155 26.1704 22.3235 26.1704 26.1577C26.1704 29.2219 25.0325 31.6283 22.7568 33.3769C20.4812 35.1256 17.36 35.9999 13.3933 35.9999L13.3933 29.647C14.7682 29.647 15.8508 29.3502 16.6409 28.7566C17.4469 28.147 17.8499 27.2967 17.8499 26.2058Z" fill="url(#paint0_linear_64_6)"/>
<defs>
<linearGradient id="paint0_linear_64_6" x1="-5.23882" y1="18" x2="45.1345" y2="18" gradientUnits="userSpaceOnUse">
<stop stop-color="#C213DF"/>
<stop offset="1" stop-color="#E7583C"/>
</linearGradient>
</defs>
</svg>
