<svg width="1381" height="430" viewBox="0 0 1381 430" fill="none" xmlns="http://www.w3.org/2000/svg">
<rect width="1381" height="430" rx="10" fill="#563FE9"/>
<path d="M74.4481 371.084C74.6856 369.121 73.9086 367.206 72.419 366.088C69.7213 364.061 57.5686 359.42 57.5686 359.42C57.5686 359.42 45.4159 354.78 42.0526 354.491C40.1984 354.333 38.3431 355.241 37.2111 356.864C35.1573 359.803 32.5686 366.582 32.5686 366.582C32.5686 366.582 29.9799 373.361 29.5518 376.921C29.3143 378.884 30.0913 380.799 31.5809 381.917C34.2786 383.944 46.4313 388.585 46.4313 388.585C46.4313 388.585 58.5841 393.225 61.9473 393.514C63.8016 393.672 65.6568 392.764 66.7904 391.142C68.8427 388.202 71.4313 381.423 71.4313 381.423C71.4313 381.423 74.02 374.644 74.4481 371.084ZM45.6754 378.641L50.3771 366.329L58.1824 376.363L45.6754 378.641Z" fill="#4A35D3"/>
<path d="M99.4481 190.084C99.6856 188.121 98.9086 186.206 97.419 185.088C94.7213 183.061 82.5686 178.42 82.5686 178.42C82.5686 178.42 70.4159 173.78 67.0526 173.491C65.1984 173.333 63.3431 174.241 62.2111 175.864C60.1573 178.803 57.5686 185.582 57.5686 185.582C57.5686 185.582 54.9799 192.361 54.5518 195.921C54.3143 197.884 55.0913 199.799 56.5809 200.917C59.2786 202.944 71.4313 207.585 71.4313 207.585C71.4313 207.585 83.5841 212.225 86.9473 212.514C88.8016 212.672 90.6568 211.764 91.7904 210.142C93.8427 207.202 96.4313 200.423 96.4313 200.423C96.4313 200.423 99.02 193.644 99.4481 190.084ZM70.6754 197.641L75.3771 185.329L83.1824 195.363L70.6754 197.641Z" fill="#4A35D3"/>
<path d="M469.448 305.084C469.686 303.121 468.909 301.206 467.419 300.088C464.721 298.061 452.569 293.42 452.569 293.42C452.569 293.42 440.416 288.78 437.053 288.491C435.198 288.333 433.343 289.241 432.211 290.864C430.157 293.803 427.569 300.582 427.569 300.582C427.569 300.582 424.98 307.361 424.552 310.921C424.314 312.884 425.091 314.799 426.581 315.917C429.279 317.944 441.431 322.585 441.431 322.585C441.431 322.585 453.584 327.225 456.947 327.514C458.802 327.672 460.657 326.764 461.79 325.142C463.843 322.202 466.431 315.423 466.431 315.423C466.431 315.423 469.02 308.644 469.448 305.084ZM440.675 312.641L445.377 300.329L453.182 310.363L440.675 312.641Z" fill="#4A35D3"/>
<path d="M283.448 44.0842C283.686 42.1214 282.909 40.206 281.419 39.0877C278.721 37.0614 266.569 32.4205 266.569 32.4205C266.569 32.4205 254.416 27.7796 251.053 27.4913C249.198 27.3327 247.343 28.2409 246.211 29.8641C244.157 32.8033 241.569 39.582 241.569 39.582C241.569 39.582 238.98 46.3608 238.552 49.9208C238.314 51.8837 239.091 53.7991 240.581 54.9174C243.279 56.9437 255.431 61.5846 255.431 61.5846C255.431 61.5846 267.584 66.2255 270.947 66.5137C272.802 66.6724 274.657 65.7642 275.79 64.1416C277.843 61.2018 280.431 54.423 280.431 54.423C280.431 54.423 283.02 47.6443 283.448 44.0842ZM254.675 51.6411L259.377 39.329L267.182 49.3635L254.675 51.6411Z" fill="#4A35D3"/>
<path d="M920.448 356.084C920.686 354.121 919.909 352.206 918.419 351.088C915.721 349.061 903.569 344.42 903.569 344.42C903.569 344.42 891.416 339.78 888.053 339.491C886.198 339.333 884.343 340.241 883.211 341.864C881.157 344.803 878.569 351.582 878.569 351.582C878.569 351.582 875.98 358.361 875.552 361.921C875.314 363.884 876.091 365.799 877.581 366.917C880.279 368.944 892.431 373.585 892.431 373.585C892.431 373.585 904.584 378.225 907.947 378.514C909.802 378.672 911.657 377.764 912.79 376.142C914.843 373.202 917.431 366.423 917.431 366.423C917.431 366.423 920.02 359.644 920.448 356.084ZM891.675 363.641L896.377 351.329L904.182 361.363L891.675 363.641Z" fill="#4A35D3"/>
<path d="M1363.45 349.084C1363.69 347.121 1362.91 345.206 1361.42 344.088C1358.72 342.061 1346.57 337.42 1346.57 337.42C1346.57 337.42 1334.42 332.78 1331.05 332.491C1329.2 332.333 1327.34 333.241 1326.21 334.864C1324.16 337.803 1321.57 344.582 1321.57 344.582C1321.57 344.582 1318.98 351.361 1318.55 354.921C1318.31 356.884 1319.09 358.799 1320.58 359.917C1323.28 361.944 1335.43 366.585 1335.43 366.585C1335.43 366.585 1347.58 371.225 1350.95 371.514C1352.8 371.672 1354.66 370.764 1355.79 369.142C1357.84 366.202 1360.43 359.423 1360.43 359.423C1360.43 359.423 1363.02 352.644 1363.45 349.084ZM1334.68 356.641L1339.38 344.329L1347.18 354.363L1334.68 356.641Z" fill="#4A35D3"/>
<path d="M1149.45 51.0842C1149.69 49.1214 1148.91 47.206 1147.42 46.0877C1144.72 44.0614 1132.57 39.4205 1132.57 39.4205C1132.57 39.4205 1120.42 34.7796 1117.05 34.4913C1115.2 34.3327 1113.34 35.2409 1112.21 36.8641C1110.16 39.8033 1107.57 46.582 1107.57 46.582C1107.57 46.582 1104.98 53.3608 1104.55 56.9208C1104.31 58.8837 1105.09 60.7991 1106.58 61.9174C1109.28 63.9437 1121.43 68.5846 1121.43 68.5846C1121.43 68.5846 1133.58 73.2255 1136.95 73.5137C1138.8 73.6724 1140.66 72.7642 1141.79 71.1416C1143.84 68.2018 1146.43 61.423 1146.43 61.423C1146.43 61.423 1149.02 54.6443 1149.45 51.0842ZM1120.68 58.6411L1125.38 46.329L1133.18 56.3635L1120.68 58.6411Z" fill="#4A35D3"/>
</svg>
